<svg xmlns="http://www.w3.org/2000/svg" viewBox="0 0 48 48"><defs><style>.cls-1{fill:#ff7e00;}</style></defs><title>icon_reserve</title><g id="_02-予約_購入" data-name="02-予約/購入"><path class="cls-1" d="M21.74,41.62H7.2V8H17.91a3.1,3.1,0,0,1-1-3.2H5.75A1.75,1.75,0,0,0,4,6.55V43.07a1.75,1.75,0,0,0,1.75,1.75H24.37A12.84,12.84,0,0,1,21.74,41.62ZM34.27,4.8H23.09a3.1,3.1,0,0,1-1,3.2H32.81V22.41a12.78,12.78,0,0,1,3.2.42V6.55A1.75,1.75,0,0,0,34.27,4.8Z"/><path class="cls-1" d="M27,9.49V7.23A7.2,7.2,0,0,0,12.6,7.17V9.49a1.31,1.31,0,0,0,1.31,1.31H25.7A1.31,1.31,0,0,0,27,9.49ZM19.8,7.8a2.4,2.4,0,1,1,2.4-2.4A2.4,2.4,0,0,1,19.8,7.8Z"/><path class="cls-1" d="M32.8,22.41a12.76,12.76,0,0,0-4.1.68H15.87a.91.91,0,1,0,0,1.81h9.37a12.85,12.85,0,0,0-2.84,2.87H15.87a.91.91,0,1,0,0,1.81h5.45A12.79,12.79,0,1,0,32.8,22.41ZM32.8,44a8.8,8.8,0,1,1,8.8-8.8A8.81,8.81,0,0,1,32.8,44Z"/><path class="cls-1" d="M37.6,33.61H34.4v-3.2a1.6,1.6,0,0,0-3.2,0v3.2H28a1.6,1.6,0,0,0,0,3.2h3.2V40a1.6,1.6,0,1,0,3.2,0V36.8h3.2a1.6,1.6,0,1,0,0-3.2Z"/><path class="cls-1" d="M15.86,20.15H28.68a.91.91,0,1,0,0-1.81H15.86a.91.91,0,1,0,0,1.81Z"/><rect class="cls-1" x="10.2" y="17.61" width="3.21" height="3.16" rx="1.5" ry="1.5"/><rect class="cls-1" x="10.2" y="22.35" width="3.21" height="3.16" rx="1.5" ry="1.5"/><rect class="cls-1" x="10.2" y="27.09" width="3.21" height="3.16" rx="1.5" ry="1.5"/></g></svg>