<svg xmlns="http://www.w3.org/2000/svg" viewBox="0 0 48 48"><defs><style>.cls-1{fill:#07c;}</style></defs><title>icon_language</title><g id="_28-外国語切り替え_Language_" data-name="28-外国語切り替え（Language）"><path class="cls-1" d="M23.5,0A23.5,23.5,0,1,0,47,23.5,23.5,23.5,0,0,0,23.5,0ZM22,12a34.54,34.54,0,0,1-6.15-.79C17.47,7,19.74,4.11,22,3.23Zm0,2.88V22H13.77A34.43,34.43,0,0,1,15,14,39.82,39.82,0,0,0,22,14.91Zm0,10v7.13A39.82,39.82,0,0,0,15,33a34.43,34.43,0,0,1-1.2-8Zm0,10v8.8c-2.29-.88-4.56-3.74-6.15-8A34.54,34.54,0,0,1,22,35ZM25,35a34.54,34.54,0,0,1,6.15.79c-1.59,4.27-3.86,7.13-6.15,8Zm0-2.88V25h8.26A34.43,34.43,0,0,1,32,33,39.82,39.82,0,0,0,25,32.09Zm0-10V14.91A39.82,39.82,0,0,0,32,14a34.43,34.43,0,0,1,1.2,8Zm0-10V3.23c2.29.88,4.56,3.74,6.15,8A34.54,34.54,0,0,1,25,12Zm5.86-7.72a20.54,20.54,0,0,1,6.89,4.44A24.25,24.25,0,0,1,34,10.31,23.37,23.37,0,0,0,30.83,4.31ZM13,10.31A24.25,24.25,0,0,1,9.28,8.76a20.54,20.54,0,0,1,6.89-4.44A23.37,23.37,0,0,0,13,10.31Zm-.89,2.79A39.25,39.25,0,0,0,11,22H2.92A20.2,20.2,0,0,1,7.27,11,26.84,26.84,0,0,0,12.13,13.1ZM11,25a39.53,39.53,0,0,0,1.13,9A26.79,26.79,0,0,0,7.27,36,20.32,20.32,0,0,1,2.92,25Zm2,11.73a23.37,23.37,0,0,0,3.15,6,20.54,20.54,0,0,1-6.89-4.44A24.25,24.25,0,0,1,13,36.69Zm21,0a24.25,24.25,0,0,1,3.74,1.56,20.54,20.54,0,0,1-6.89,4.44A23.37,23.37,0,0,0,34,36.69Zm.89-2.76a39.62,39.62,0,0,0,1.07-9h8.12a20.29,20.29,0,0,1-4.34,11A26.79,26.79,0,0,0,34.87,33.93ZM35.94,22a39.33,39.33,0,0,0-1.07-8.94A26.84,26.84,0,0,0,39.73,11a20.18,20.18,0,0,1,4.34,11Z"/></g></svg>