<?xml version="1.0" encoding="utf-8"?>
<!-- Generator: Adobe Illustrator 20.1.0, SVG Export Plug-In . SVG Version: 6.00 Build 0)  -->
<svg version="1.1" id="レイヤー_1" xmlns="http://www.w3.org/2000/svg" xmlns:xlink="http://www.w3.org/1999/xlink" x="0px"
	 y="0px" viewBox="0 0 13.3 13.3" style="enable-background:new 0 0 13.3 13.3;" xml:space="preserve">
<style type="text/css">
	.st0{fill:#6E6E6E;}
</style>
<path class="st0" d="M13,11.6l-5-5l5-5c0.4-0.4,0.4-1,0-1.4c-0.4-0.4-1-0.4-1.4,0l-5,4.9l-5-4.9C1.3,0,0.8,0,0.4,0.3
	C0,0.7-0.1,1.3,0.3,1.7l5,5l-5,5c-0.3,0.4-0.3,1,0,1.3c0.4,0.4,1,0.4,1.4,0.1l5-4.9l5,4.9c0,0,0.1,0.1,0.1,0.1
	c0.4,0.4,1,0.3,1.4-0.1C13.5,12.6,13.4,12,13,11.6z"/>
</svg>
