<svg version="1.1" xmlns="http://www.w3.org/2000/svg" xmlns:xlink="http://www.w3.org/1999/xlink" x="0px"
	 y="0px" viewBox="0 0 31 45.4" style="enable-background:new 0 0 31 45.4;" xml:space="preserve">
<style type="text/css">
	.st0{fill:#ef5697;}
</style>
<path id="logo_TDL.svg" class="st0" d="M27.5,27.8v-0.7c0.2-0.1,0.4-0.1,0.6-0.2c0.4-0.1,1,0.1,1.4,0c0.3-0.1,0.7-0.2,0.9-0.5
	c-1.1,0.2-1.6-1-2.4-1.2c-0.3,0-0.6,0-0.8,0.1v2.5c-0.2,2-0.8,4-1.7,5.9l0-4.6l0.4-0.4l0-1.1h-0.3c0,0-0.8-1.1-1.4-5.8c0,0,0,0,0,0
	v-0.9c0.2-0.1,0.4-0.1,0.6-0.2c0.4-0.1,1,0.1,1.4,0c0.3-0.1,0.7-0.2,0.9-0.5c-1.1,0.2-1.6-1-2.4-1.2c-0.3,0-0.6,0-0.8,0.1v2.7
	c0,0,0,0,0,0c-0.6,4.7-1.4,5.8-1.4,5.8h-0.3v1.1l0.4,0.4l0,1.5h-1.1v-3.8l0.6-0.9v-2.9H23c-0.7-1.3-1.1-2.7-1.4-4.1
	c0-0.1,0-0.1-0.1-0.1c-0.1,0-0.1,0.1-0.1,0.1c-0.2,1.3-0.6,2.5-1.2,3.6v-3.7l0.5-0.9v-0.8H20v-1.7h0.7c-1.3-2-2.4-11.1-2.4-12.1V2.6
	c0.2-0.1,0.4-0.1,0.6-0.2c1-0.1,1.5,1.2,2.8,0.4c-0.6-0.1-1.1-0.5-1.5-1c0.5-0.1,0.9-0.4,1.1-0.8c-0.5,0-0.9,0-1.3-0.2
	c-0.4-0.3-0.8-0.6-1.3-0.7c-0.3,0-0.6,0-0.8,0.1v3.4c0,1-1.1,10.1-2.4,12.1H16v1.7h-0.7v0.7l0.4,0.9v6.3l-1.1-4.4h-3.9L9.3,27
	c-0.4-1.3-0.7-2.6-1-4c0-0.1-0.1-0.1-0.2-0.1C8.1,23,8,23,8,23.1c-0.3,2.1-0.9,4.2-1.9,6.1h0.4v0.9l0.5,0.8v1.4H5.9
	c0,0-2.1-3.8-2.2-5v-0.5c0.2-0.1,0.4-0.1,0.6-0.2c0.4-0.1,1,0.1,1.4,0c0.3-0.1,0.7-0.3,0.9-0.5c-1.1,0.2-1.6-1-2.4-1.1
	c-0.3,0-0.6,0-0.8,0.1v2.3c-0.4,1.9-1.1,3.7-2.2,5.3h1.1v2.8H0.7v2.1c0,0,0.5-0.1,0.7,0.6S0,45.4,0,45.4h31
	c-1.1-3.6-1.5-6.9-1.3-7.5c0.1-0.3,0.4-0.5,0.6-0.5v-2.1h-1.6v-1.1h0.8C28.5,32.2,27.8,30.1,27.5,27.8z"/>
</svg>
