<svg version="1.1" xmlns="http://www.w3.org/2000/svg" xmlns:xlink="http://www.w3.org/1999/xlink" x="0px"
	 y="0px" viewBox="0 0 247.8 36.2" style="enable-background:new 0 0 247.8 36.2;" xml:space="preserve">
<style type="text/css">
	.st0{fill:#004499;}
</style>
<path id="logo.svg" class="st0" d="M109.7,16.6c0-0.8-0.3-1.6-0.8-2.3c-0.5-0.4-0.9-0.1-1.1,0.7c-0.1,0.5-0.2,0.9-0.2,1.4
	c-0.2,1.7-0.3,3.4-0.3,5.2c0,1.2,0.1,2.9,0.2,3.5c0.1,1,2.5,1.4,2.5-0.1c0-0.4,0-1.8,0-3.3l0,0C109.9,19.8,109.8,17.8,109.7,16.6z
	 M104.8,21.6c-0.8,1.3-1.9,2.3-3.1,3.1c-2.2,1.2-4.6,2-7.1,2.1l0,0c-1,0.1-2,0.1-3,0c-1.4-0.1-2.7-0.3-4-0.7c0,0.2-0.1,0.5-0.1,0.7
	l0,0c0,0.3-0.1,0.5-0.2,0.7s-0.3,0.2-0.5,0.3c-0.4,0.1-0.8,0.1-1.1,0c-0.5-0.2-0.8-0.6-0.9-1c-0.2-0.6-0.3-1.2-0.3-1.8
	c-1.8-0.9-3.4-2.1-4.9-3.4c-0.9-0.7-1.7-1.6-2.5-2.5c-0.7-0.7-0.7-1.9,0-2.6c0.3-0.3,0.6-0.6,1-0.8c2.5-1.6,6.8-2.2,6.8-2.2
	c0.1-1.9,0.3-3.8,0.8-5.6c0.3-0.8,0.9-0.5,1.3,0c0.4,0.7,0.6,1.4,0.7,2.2c0.1,0.9,0.1,3.1,0.1,3.1c3.6,0,6.6,0.3,8.8,1.8
	c0.6,0.3,1.1,0.8,1.4,1.4c0.2,0.5,0.3,1,0.2,1.6c-0.4,1-1.3,1.7-2.4,1.7c-1.2,0-1.5-0.4-1.2-0.6c0.5-0.2,0.9-0.4,1.2-0.7
	c0.2-0.3,0.2-0.8-0.2-1.1c-0.1,0-0.1-0.1-0.2-0.1c-0.8-0.4-1.7-0.6-2.6-0.8c-1.6-0.3-3.2-0.5-4.9-0.5v0.5v5.2v2.1
	c2,0.9,6.3,0.7,9.4,0c1.4-0.4,2.8-1.2,3.9-2.1c1.5-1.3,2.1-3.3,1.7-5.2c-0.7-3.4-3.9-6.9-7-8.7c-5.9-3.7-14-7-22.4-5.3
	c-0.5,0.1-0.4,0.4-0.1,0.4c0.5,0.1,1.5,0.2,1.3,0.7s-2,0.3-2.4,0S71.8,2.7,72,2.3c0.5-1.2,2.4-2.2,5.3-2.4
	c8.5-0.4,16.8,2.4,23.3,7.9c1.8,1.5,4.8,4.9,5.5,8.5C106.1,18.2,105.7,20.1,104.8,21.6z M84.3,21.6l0.2-5.2v-0.3
	c-1.3,0-2.6,0.1-3.9,0.3c-0.9,0.1-1.8,0.4-2.7,0.7c-0.6,0.3-0.8,0.7-0.5,1.2c1.2,1.3,2.6,2.4,4.2,3.3c0.8,0.5,1.6,0.9,2.5,1.2
	L84.3,21.6L84.3,21.6L84.3,21.6z M109.7,12.2c-0.9,0.1-1.9,0-2.8-0.3c-0.2,0.2-0.2,1-0.8,1c-0.4,0.1-1.1-0.5-0.9-2
	c-0.9-0.8-1.1-2.2-0.6-3.3c0.4-1.4,2.8-3.8,6-4.1c1.7-0.2,2.5,0.1,2.8,1.2c0.1,0,2.3,0.1,2.5,1.4C116.7,9.2,112.1,11.9,109.7,12.2
	L109.7,12.2z M109.9,5.8c-1.4,0-2.7,0.6-3.5,1.7c-0.5,0.4-0.6,1.2-0.2,1.7C107.2,7.8,108.5,6.6,109.9,5.8L109.9,5.8z M113.6,6.2
	c-2.2,0.1-3.9,2-5.4,3.9c1.1,0.2,2.3,0.1,3.4-0.3c1.1-0.4,2.1-1.1,2.7-2.1C114.6,7.2,114.8,6.2,113.6,6.2L113.6,6.2z M119.5,16.4
	c0.8-0.1,1.6-0.1,2.4-0.2c1.1-0.1,1.7-1.3,0.4-1.6c-3.2-0.9-9.5-0.6-11,1.9c-0.1,0.2-0.2,0.5-0.3,0.8c-0.1,0.6-0.5,2.1,2.1,2.3
	c1.1,0.3,5.5-0.2,7.6,1.5c0.2,0.1,0.3,0.4,0.2,0.6c-0.1,0.2-0.2,0.3-0.3,0.4c-2.1,1.3-4.6,1.7-7,1.2c-0.7-0.1-1.2-0.5-1.1-1
	c0.1-0.2,0.2-0.4,0.4-0.5l0,0c0.2-0.1,0.4-0.1,0.7-0.1c0.2,0,0.3,0,0.5,0.1c1.3,0.3,3.7,1.5,5.2,0.2c0.1-0.1,0.1-0.1,0.1-0.2l0,0
	c0.1-0.5-1-0.7-2.4-1.1c-0.5-0.1-3.3-0.8-4.8,0.5c-0.2,0.2-0.3,0.4-0.4,0.6c-0.3,0.8-0.1,1.8,0.6,2.4c3,3.1,7.8,1.6,9,0.7
	c0.8-0.6,1.3-1.6,1.3-2.6c0-0.2,0-0.3,0-0.5c0-1.1-0.6-2.1-1.6-2.5c-2.1-1-5-0.6-7.8-1.1c-0.5-0.1-0.7-0.4,0.1-0.7
	C115.5,16.8,117.5,16.5,119.5,16.4L119.5,16.4z M134.8,21.6c0.2-0.3,0.3-0.7,0.3-1.1s-0.1-0.7-0.2-1.1c-0.1-0.4,0.7-0.5,1.1-0.6
	c0.3-0.6,0.6-1.3,0.9-2c-0.3-0.1-0.8-0.2-1.1-0.4c-0.6-0.2-1.6-1-0.6-1.4c1.2-0.5,6.8-1.1,7.8-0.8c0.7,0.4,1.2,0.9,1.5,1.6
	c0,0.2,0,0.3-0.1,0.5c-0.2,0.2-0.4,0.3-0.6,0.3c-1.5,0.2-3.1,0.3-4.7,0.3c-0.2,0.5-0.4,1.1-0.5,1.6c0,0-0.1,0.1,0.2,0.1
	c1.1,0,2.2,0.1,3.3,0.2c0.4,0.1,0.3,1.3,0.1,1.5c-0.5,0.3-3.6,0.2-4.3,0.3c-0.1,0.3-0.3,0.5-0.4,0.8l0,0c-0.2,0.5-0.4,1-0.5,1.5
	c0,0.1,0.1,0.2,0.2,0.1c1.7-0.1,4.7-1.1,5.1-0.6s0.8,1.2,0.4,1.5c-1.4,1.2-3,2-4.8,2.4C135.6,26.9,133.2,25.2,134.8,21.6L134.8,21.6
	z M149.3,23.5c0.3-0.6,0.6-1.3,1-1.9c1.1-1.7,2.7-3.9,3.4-4.1c0.6-0.4,0.8,1.5,0.5,2.4c-0.2,0.6-0.5,1.2-1,1.7
	C152.2,22.7,150.8,23.3,149.3,23.5z M146.7,21.6c-0.1,0.1-0.1,0.2-0.2,0.3c-0.1-0.1-0.1-0.2-0.1-0.3l0,0c-0.5-1.5,1-3.5,1.9-5.2
	c0.2-0.3,0.3-0.7,0.4-1c0.4-1,0.6-2.2-0.9-0.9c-1.9,1.9-3.1,4.4-3.4,7c0,0.8,0.2,1.7,0.6,2.4c-0.3,0.9-1.9,5.8-2.3,7.8
	c-0.3,1.4-0.4,2,0,2.9c0.4,0.8,2.2,2.4,2.4,1.1c0.5-3.1,1.3-6.1,2.4-9l0,0l0.1-0.3c1.1,0,2.3-0.2,3.3-0.5c2-0.8,3.6-2.3,4.5-4.3
	c0.7-1.6,0.7-3.5-0.1-5.2c-0.6-1.1-1.6-1.6-2.6-1c-0.5,0.3-1,0.7-1.5,1C149.6,18,148,19.7,146.7,21.6 M125.7,25
	c0,0.5-0.4,0.8-0.8,0.9c-0.7-0.1-1.2-0.6-1.2-1.3c-0.1-1-0.1-2,0-3c0.1-1.8,0.5-3.5,1.1-5.2c0.1-0.4,0.3-0.7,0.5-1.1
	c0.2-0.3,0.6-0.5,0.9-0.3c0,0,0.1,0,0.1,0.1c0.4,0.4,0.8,0.9,1.1,1.3c1.1,1.6,2.1,3.4,3.4,5.1c0.4,0.6,0.5,0.2,0.5-0.1
	c-0.2-2.8-0.7-5.7-1.6-8.4c-0.1-0.5-0.1-0.9,0.5-0.7c1.4,1,2.4,2.4,2.8,4.1c0.6,1.7,0.8,3.4,0.7,5.2c-0.1,1.8-1.7,5.2-3.9,2.6
	c-0.7-0.8-1.2-1.7-1.7-2.6s-1.1-2.1-1.5-2.8c-0.1-0.2-0.3-0.2-0.3,0.2C126.1,19.2,125.8,23.8,125.7,25L125.7,25z M36.1,11.3h4.6
	L34,17.9l6.5,7.8h-4.4L32,20.6v5.1h-3.3V11.3H32v4.2L36.1,11.3z M49.7,19.6l4.8-8.3h-3.8L48,15.8l-2.6-4.5h-3.9l4.8,8.3v6.2h3.3
	L49.7,19.6L49.7,19.6z M166.7,21.4L166.7,21.4l3.1,4.3h4.1l-4.3-5.9c0.9-0.4,1.7-1.2,2.1-2.1c0.3-0.6,0.4-1.3,0.4-1.9
	c0-0.9-0.3-1.8-0.8-2.5c-0.3-0.5-0.8-0.9-1.3-1.2c-1.2-0.6-2.5-0.8-3.8-0.7h-2.8v14.4h3.3V21.4L166.7,21.4z M166.7,17.3v-2.8
	c2.1,0.1,2.1,0.9,2.1,1.4C168.8,16.5,168.6,17.2,166.7,17.3L166.7,17.3z M219.9,21.4L219.9,21.4l3.1,4.3h4.1l-4.3-5.9
	c0.9-0.4,1.7-1.2,2.1-2.1c0.3-0.6,0.4-1.3,0.4-1.9c0-0.9-0.3-1.8-0.8-2.5c-0.3-0.5-0.8-0.9-1.3-1.2c-1.2-0.6-2.5-0.8-3.8-0.7h-2.8
	v14.4h3.3V21.4L219.9,21.4z M219.9,17.3v-2.8c2.1,0.1,2.1,0.9,2.1,1.4C222,16.5,221.8,17.2,219.9,17.3L219.9,17.3z M183.6,25.7h-7.7
	V11.3h7.7v3.2h-4.4v1.8h4.2v3.2h-4.2v3h4.4V25.7L183.6,25.7z M194.3,25.2c1.2-0.8,2-2.2,2.1-3.7c0-0.1,0-0.2,0-0.3
	c0-1.3-0.5-2.6-1.6-3.5c-0.6-0.5-1.4-0.9-2.1-1.2l-0.9-0.4c-0.8-0.3-1.2-0.6-1.2-1c0.1-0.6,0.7-1,1.2-0.9c0.5,0,1.1,0.3,1.3,0.8
	l0.4,0.8l2.7-1.7l-0.4-0.7c0,0,0-0.1-0.1-0.1c-0.8-1.4-2.3-2.2-3.9-2.2c-1.7,0-3.2,0.8-4.1,2.2l0,0c-0.3,0.6-0.5,1.3-0.5,1.9
	c0,0.9,0.3,1.8,1,2.5l0,0c0.7,0.7,1.4,1.2,2.3,1.5l0.9,0.4c1.2,0.5,1.7,0.9,1.7,1.6c0,0.1,0,0.2,0,0.3c-0.1,0.7-0.7,1.3-1.4,1.3
	c-0.4,0-0.9-0.2-1.2-0.5c-0.2-0.2-0.4-0.5-0.4-0.9l0,0c0-0.1,0-0.1,0-0.2v-1.1l-3.5,0.7l0.1,0.5v0.3c0.2,1.4,0.9,2.7,2.1,3.5l0,0
	c0.8,0.6,1.7,0.8,2.7,0.8C192.4,26,193.4,25.7,194.3,25.2L194.3,25.2z M213.8,17.7c-0.5-4.1-4.2-7.1-8.3-6.6
	c-3.5,0.4-6.3,3.2-6.6,6.6c0,0.3,0,0.5,0,0.8c0,1,0.2,2,0.6,2.9c0.7,1.6,1.9,2.9,3.4,3.7c1.1,0.6,2.3,0.8,3.5,0.8s2.4-0.3,3.5-0.9
	c1.5-0.8,2.8-2.1,3.4-3.7c0.4-0.9,0.6-1.9,0.6-2.9C213.9,18.2,213.8,18,213.8,17.7L213.8,17.7z M209.4,21.4
	c-1.5,1.7-4.2,1.8-5.8,0.3c-0.1-0.1-0.2-0.2-0.3-0.3c-0.7-0.8-1.1-1.8-1.1-2.9c0-0.3,0-0.5,0.1-0.8c0.4-2.3,2.6-3.8,4.8-3.4
	c1.7,0.3,3.1,1.7,3.4,3.4C210.7,19,210.3,20.4,209.4,21.4L209.4,21.4z M233.9,14.5h3v-3.2h-9.4v3.2h3v11.2h3.3L233.9,14.5
	L233.9,14.5z M25.8,17.7c-0.5-4.1-4.2-7.1-8.3-6.6c-3.5,0.4-6.3,3.2-6.6,6.6c0,0.3,0,0.5,0,0.8c0,1,0.2,2,0.6,2.9
	c0.7,1.6,1.9,2.9,3.4,3.7c1.1,0.6,2.3,0.8,3.5,0.8s2.4-0.3,3.5-0.9c1.5-0.8,2.8-2.1,3.4-3.7C25.8,20.2,26,19,25.8,17.7L25.8,17.7z
	 M21.4,21.4c-1.5,1.7-4.1,1.8-5.8,0.3c-0.1-0.1-0.2-0.2-0.3-0.3c-0.7-0.8-1.1-1.8-1.1-2.9c0-0.3,0-0.5,0.1-0.8
	c0.4-2.3,2.6-3.8,4.9-3.4c1.7,0.3,3.1,1.7,3.4,3.4c0,0.3,0.1,0.5,0.1,0.8C22.5,19.6,22.1,20.6,21.4,21.4L21.4,21.4z M70.2,17.7
	c-0.4-3.8-3.6-6.7-7.5-6.7c-3.8,0-7.1,2.9-7.5,6.7c0,0.3,0,0.5,0,0.8c0,1,0.2,2,0.6,2.9c0.7,1.6,1.9,2.9,3.4,3.7
	c1.1,0.6,2.3,0.8,3.5,0.8s2.4-0.3,3.5-0.9c1.5-0.8,2.8-2.1,3.4-3.7c0.4-0.9,0.6-1.9,0.6-2.9C70.2,18.2,70.2,18,70.2,17.7L70.2,17.7z
	 M65.7,21.4c-1.5,1.7-4.1,1.8-5.8,0.3c-0.1-0.1-0.2-0.2-0.3-0.3c-0.7-0.8-1.1-1.8-1.1-2.9c0-0.3,0-0.5,0.1-0.8
	c0.4-2.3,2.6-3.8,4.9-3.4c1.7,0.3,3.1,1.7,3.4,3.4c0,0.3,0.1,0.5,0.1,0.8C66.9,19.6,66.5,20.6,65.7,21.4L65.7,21.4z M6.3,14.5h3
	v-3.2H0v3.2h3v11.2h3.3V14.5z M244.8,21.3c0.5-0.2,0.7-0.8,0.7-1.3c-0.1-1.1-0.8-1.3-1.6-1.3h-2.3v5.1h0.7v-2.2h1.7
	c1.1,0,0.8,0.9,0.8,1.5c0,0.2,0.1,0.4,0.1,0.6h0.8v-0.2c-0.3-0.3-0.4-0.7-0.3-1C245.5,22.1,245.2,21.5,244.8,21.3z M243.8,21h-1.6
	v-1.7h1.6c0.5,0,0.9,0.3,0.9,0.8S244.4,21,243.8,21C243.9,21,243.9,21,243.8,21L243.8,21z M243.4,16.8c-2.5,0-4.4,2-4.4,4.4
	s2,4.4,4.4,4.4c2.5,0,4.4-2,4.4-4.4l0,0C247.8,18.8,245.8,16.8,243.4,16.8L243.4,16.8z M243.4,25.3c-2.2,0-4-1.8-4-4s1.8-4,4-4
	s4,1.8,4,4l0,0C247.4,23.5,245.6,25.3,243.4,25.3L243.4,25.3L243.4,25.3z"/>
</svg>
