<?xml version="1.0" encoding="utf-8"?>
<!-- Generator: Adobe Illustrator 20.1.0, SVG Export Plug-In . SVG Version: 6.00 Build 0)  -->
<svg version="1.1" id="close" xmlns="http://www.w3.org/2000/svg" xmlns:xlink="http://www.w3.org/1999/xlink" x="0px" y="0px"
	 viewBox="0 0 60 60" style="enable-background:new 0 0 60 60;" xml:space="preserve">
<style type="text/css">
	.st0{fill:#0077CC;}
	.st1{fill:#FFFFFF;}
</style>
<path class="st0" d="M30,0C13.4,0,0,13.4,0,30s13.4,30,30,30s30-13.4,30-30S46.6,0,30,0z M42.7,42.7c-0.8,0.8-2,0.8-2.8,0L30,32.8
	l-9.9,9.9c-0.8,0.8-2,0.8-2.8,0c-0.8-0.8-0.8-2,0-2.8l9.9-9.9l-9.9-9.9c-0.8-0.8-0.8-2,0-2.8c0.8-0.8,2-0.8,2.8,0l9.9,9.9l9.9-9.9
	c0.8-0.8,2-0.8,2.8,0c0,0,0,0,0,0c0.8,0.8,0.8,2,0,2.8L32.8,30l9.9,9.9C43.5,40.7,43.5,41.9,42.7,42.7z"/>
<path class="st1" d="M32.8,30l9.9-9.9c0.8-0.8,0.8-2,0-2.8c0,0,0,0,0,0c-0.8-0.8-2-0.8-2.8,0L30,27.2l-9.9-9.9c-0.8-0.8-2-0.8-2.8,0
	c-0.8,0.8-0.8,2,0,2.8l9.9,9.9l-9.9,9.9c-0.8,0.8-0.8,2,0,2.8c0.8,0.8,2,0.8,2.8,0l9.9-9.9l9.9,9.9c0.8,0.8,2,0.8,2.8,0
	c0.8-0.8,0.8-2,0-2.8L32.8,30z"/>
</svg>
