<svg version="1.1" xmlns="http://www.w3.org/2000/svg" xmlns:xlink="http://www.w3.org/1999/xlink" x="0px"
	 y="0px" viewBox="0 0 41.7 31.8" style="enable-background:new 0 0 41.7 31.8;" xml:space="preserve">
<style type="text/css">
	.st0{fill:#12a0a0;}
</style>
<path id="logo_TDS.svg" class="st0" d="M36.8,7.4c5.8,6.9,6.5,16.8,1.7,24.4c-1,0-1.9-0.4-2.5-1.2c-0.5,0.8-1.4,1.2-2.4,1.2
	c-0.9,0-1.8-0.5-2.4-1.2c-0.6,0.8-1.5,1.3-2.5,1.2c-0.9,0-1.7-0.4-2.3-1.1c4.7-3.1,6-9.4,2.9-14.1c-0.1-0.1-0.1-0.2-0.2-0.3
	c2.1,1.2,4.6,1,6.6-0.4C38.2,14,38.6,10.3,36.8,7.4L36.8,7.4L36.8,7.4z M7.5,4.8c7.7-6.4,18.9-6.4,26.6,0c-2.1-1.4-4.9-1.4-7,0.1
	c-2.5,1.9-2.8,5.6-0.9,8.6c-3.3-2-7.5-2-10.8,0c1.9-3,1.6-6.7-0.9-8.6C12.4,3.4,9.7,3.4,7.5,4.8L7.5,4.8L7.5,4.8z M0,20.7
	c0-4.9,1.7-9.6,4.9-13.3c-1.8,2.9-1.4,6.6,1,8.5c1.9,1.4,4.5,1.6,6.6,0.4c-3.2,4.6-2.2,10.9,2.4,14.2c0.1,0.1,0.2,0.2,0.3,0.2
	c-0.5,0.7-1.4,1.1-2.3,1.1c-1,0-1.9-0.4-2.5-1.2c-0.5,0.8-1.4,1.2-2.4,1.2c-1,0-1.9-0.4-2.4-1.2c-0.6,0.8-1.5,1.2-2.5,1.2
	C1.1,28.4,0,24.6,0,20.7L0,20.7z"/>
</svg>
